<svg xmlns="http://www.w3.org/2000/svg" viewBox="0 0 64 64" width="64" height="64" fill="none" stroke="currentColor" stroke-linecap="round" stroke-linejoin="round" aria-label="QDYN mark — F-center / vacancy + halo">
  <g opacity="0.16" fill="currentColor" stroke="none">
    <circle cx="10" cy="10" r="6"></circle>
    <circle cx="32" cy="10" r="6"></circle>
    <circle cx="54" cy="10" r="6"></circle>
    <circle cx="10" cy="32" r="6"></circle>
    <circle cx="54" cy="32" r="6"></circle>
    <circle cx="10" cy="54" r="6"></circle>
    <circle cx="32" cy="54" r="6"></circle>
    <circle cx="54" cy="54" r="6"></circle>
  </g>
  <g stroke-width="1" stroke-dasharray="1.8 2" opacity="0.5">
    <line x1="14" y1="14" x2="25" y2="25"></line>
    <line x1="32" y1="14" x2="32" y2="22"></line>
    <line x1="50" y1="14" x2="39" y2="25"></line>
    <line x1="14" y1="32" x2="22" y2="32"></line>
    <line x1="50" y1="32" x2="42" y2="32"></line>
    <line x1="14" y1="50" x2="25" y2="39"></line>
    <line x1="32" y1="50" x2="32" y2="42"></line>
    <line x1="50" y1="50" x2="39" y2="39"></line>
  </g>
  <g fill="currentColor" stroke="none">
    <circle cx="32" cy="32" r="13" opacity="0.07"></circle>
    <circle cx="32" cy="32" r="9" opacity="0.13"></circle>
    <circle cx="32" cy="32" r="6" opacity="0.22"></circle>
    <circle cx="32" cy="32" r="3" opacity="0.32"></circle>
  </g>
  <g fill="currentColor" stroke="none">
    <circle cx="10" cy="10" r="3.5"></circle>
    <circle cx="32" cy="10" r="3.5"></circle>
    <circle cx="54" cy="10" r="3.5"></circle>
    <circle cx="10" cy="32" r="3.5"></circle>
    <circle cx="54" cy="32" r="3.5"></circle>
    <circle cx="10" cy="54" r="3.5"></circle>
    <circle cx="32" cy="54" r="3.5"></circle>
    <circle cx="54" cy="54" r="3.5"></circle>
  </g>
</svg>